<?xml version="1.0" encoding="UTF-8"?>
<svg version="1.1" xmlns="http://www.w3.org/2000/svg" width="621" height="402">
<path d="M0 0 C8.4585981 7.02256281 13.31907493 16.22228502 14.5625 27.125 C16.09796367 50.36633646 9.51431707 71.11577546 -1.1171875 91.52734375 C-2.51301704 93.78791985 -2.51301704 93.78791985 -2.4375 95.125 C-1.3767778 94.9118364 -0.3160556 94.69867279 0.77680969 94.47904968 C14.99297972 91.82437179 28.93244648 91.73688727 43.35546875 91.83203125 C45.88421881 91.83764055 48.41297217 91.84190432 50.94172668 91.84489441 C56.86272632 91.85508574 62.7835495 91.87860389 68.70447761 91.90894288 C75.45929975 91.94278384 82.21413122 91.95904654 88.96901739 91.97402918 C102.83360554 92.00516508 116.69804328 92.05773735 130.5625 92.125 C130.5625 97.26112007 128.38272379 98.96674436 125 102.4375 C124.17399292 103.30797974 124.17399292 103.30797974 123.33129883 104.19604492 C119.99265856 107.69972611 116.58815846 111.13486151 113.1328125 114.5234375 C111.38336777 116.30769706 109.75534418 118.16896124 108.125 120.0625 C98.58440722 131.11404639 98.58440722 131.11404639 94.5625 133.125 C92.00723586 133.22654594 89.47830506 133.26865098 86.92260742 133.2668457 C86.13365082 133.27032013 85.34469421 133.27379456 84.53182983 133.27737427 C82.81360265 133.28473826 81.09536592 133.29008021 79.37712669 133.29366493 C76.64711729 133.30083602 73.91728705 133.31651215 71.18733215 133.33500671 C63.42317321 133.38741189 55.65910696 133.43534453 47.89477539 133.45092773 C43.14602166 133.46108328 38.39771125 133.49060812 33.64913368 133.53224754 C31.84849739 133.54446668 30.04779816 133.54969563 28.24712181 133.54744911 C11.84311503 133.53203536 -2.81536163 135.87660223 -15.3125 147.5 C-21.74422014 154.43112429 -24.4375 162.96607329 -24.4375 172.39453125 C-23.80313756 179.3064387 -20.64646313 185.52374924 -15.4375 190.125 C-5.15670478 196.55935977 4.59924293 197.43120063 16.46875 197.5390625 C17.8025427 197.55780442 19.13632391 197.57738001 20.47009277 197.5977478 C23.95517157 197.64875622 27.44028868 197.68854774 30.92553711 197.72589111 C34.49211865 197.76612874 38.05854516 197.8171302 41.625 197.8671875 C48.60405297 197.96357536 55.58320583 198.04809713 62.5625 198.125 C62.69527344 196.99320313 62.82804687 195.86140625 62.96484375 194.6953125 C63.1430342 193.21351821 63.32143029 191.73174864 63.5 190.25 C63.58701172 189.50363281 63.67402344 188.75726563 63.76367188 187.98828125 C64.44921875 182.3515625 64.44921875 182.3515625 65.5625 180.125 C41.4725 180.125 17.3825 180.125 -7.4375 180.125 C-7.7675 179.465 -8.0975 178.805 -8.4375 178.125 C-6.15034527 174.98016225 -3.75254895 172.51661786 -0.74902344 170.08886719 C2.44556111 167.35324472 4.70879072 164.6154176 7.02246094 161.11035156 C12.68117017 153.19653786 18.63978626 146.7788798 28.47290039 145.06567383 C41.71914925 143.44264705 55.21524675 144.20217019 68.51062012 144.75170898 C74.04720331 144.95844302 79.58564835 145.04809006 85.125 145.1484375 C95.94235778 145.36124649 106.75148786 145.70130624 117.5625 146.125 C118.65823915 149.41221745 118.46740352 150.50164272 117.75097656 153.8034668 C117.54921814 154.76259476 117.34745972 155.72172272 117.1395874 156.70991516 C116.91305481 157.75826035 116.68652222 158.80660553 116.453125 159.88671875 C114.41654705 169.67309036 112.57998893 179.47445197 110.921875 189.33203125 C110.59902527 191.24989944 110.59902527 191.24989944 110.26965332 193.20651245 C109.6143793 197.11636516 108.96310054 201.02686715 108.3125 204.9375 C107.64488844 208.9371265 106.9752122 212.93640302 106.30426025 216.93547058 C105.89172109 219.39586398 105.48095244 221.85655509 105.07220459 224.31758118 C104.88821106 225.41781113 104.70421753 226.51804108 104.51464844 227.65161133 C104.2741275 229.09737297 104.2741275 229.09737297 104.02874756 230.57234192 C103.87488586 231.41471909 103.72102417 232.25709625 103.5625 233.125 C103.43973694 233.87726364 103.31697388 234.62952728 103.19049072 235.40458679 C102.87963531 236.25619133 102.87963531 236.25619133 102.5625 237.125 C99.72867177 238.06960941 98.02727356 238.24564266 95.09541321 238.23420715 C94.18044067 238.2329483 93.26546814 238.23168945 92.32276917 238.23039246 C91.32075974 238.22373062 90.31875031 238.21706879 89.28637695 238.21020508 C88.22899323 238.20702271 87.1716095 238.20384033 86.08218384 238.20056152 C82.57165945 238.18793574 79.06125546 238.16704886 75.55078125 238.14453125 C74.34888845 238.13757421 73.14699566 238.13061718 71.90868187 238.12344933 C65.5359912 238.08600108 59.16338284 238.04198501 52.79077148 237.99291992 C46.24017941 237.94381473 39.68970803 237.91744838 33.13897419 237.89648914 C28.0778326 237.87599404 23.01692381 237.83806731 17.95592308 237.7956295 C15.54373089 237.77840609 13.13148302 237.7676214 10.71923256 237.76368141 C-2.58188011 237.73561465 -14.72848191 237.32276852 -27.4375 233.125 C-28.27712784 232.85023834 -29.11675568 232.57547668 -29.98182678 232.29238892 C-39.41091076 228.92891445 -46.48801756 224.374853 -53.4375 217.125 C-54.43712969 216.18710516 -55.43705056 215.24952037 -56.4375 214.3125 C-58.27227376 212.3057162 -59.41700503 210.62985129 -60.4375 208.125 C-61.0975 208.125 -61.7575 208.125 -62.4375 208.125 C-67.92686133 198.98120431 -71.11980087 190.53305261 -73.4375 180.125 C-74.56671875 181.12466797 -74.56671875 181.12466797 -75.71875 182.14453125 C-84.17745964 189.52562075 -93.05890142 195.96723538 -102.4375 202.125 C-103.448125 202.80046875 -104.45875 203.4759375 -105.5 204.171875 C-120.47734277 213.81154774 -137.15579066 222.60638792 -154.4375 227.125 C-155.5821875 227.43953125 -156.726875 227.7540625 -157.90625 228.078125 C-173.2095716 231.73761495 -191.72962513 233.00719427 -205.68359375 224.8046875 C-215.38125113 218.09515517 -220.64805938 209.7978222 -223.0234375 198.28515625 C-226.40463865 172.47957386 -217.17433812 147.16175167 -204.4375 125.125 C-203.1175 125.455 -201.7975 125.785 -200.4375 126.125 C-200.94410156 127.68734375 -200.94410156 127.68734375 -201.4609375 129.28125 C-206.19391659 144.29993429 -210.75908883 160.65152509 -203.4375 175.625 C-202.77970744 176.79669301 -202.11324294 177.96356682 -201.4375 179.125 C-201.14875 179.8159375 -200.86 180.506875 -200.5625 181.21875 C-199.15225147 183.60833778 -197.96509366 184.05421941 -195.4375 185.125 C-194.40496094 185.74568359 -194.40496094 185.74568359 -193.3515625 186.37890625 C-182.61911455 192.51435004 -170.16567575 192.20425953 -158.4375 189.125 C-137.42692079 182.39273694 -118.02092798 172.42825143 -100.4375 159.125 C-99.64085937 158.52776123 -99.64085937 158.52776123 -98.828125 157.91845703 C-89.10136245 150.59781828 -80.18790378 142.57944875 -71.4375 134.125 C-70.90962891 133.61904297 -70.38175781 133.11308594 -69.83789062 132.59179688 C-63.48075319 126.48137888 -57.76315047 120.14760122 -52.4375 113.125 C-51.74269531 112.23554688 -51.04789063 111.34609375 -50.33203125 110.4296875 C-31.79821887 86.35213301 -13.75960942 56.68642635 -15.61328125 25.1328125 C-16.75084046 17.0205216 -20.14375419 9.36989916 -26.6875 4.1875 C-33.23401953 0.09773173 -40.87180539 -1.17447272 -48.4375 -1.875 C-48.4375 -3.195 -48.4375 -4.515 -48.4375 -5.875 C-32.5082832 -8.6699981 -13.72366948 -9.5512718 0 0 Z " fill="#1A1B2A" transform="translate(356.4375,97.875)"/>
<path d="M0 0 C0.87760986 -0.00315216 1.75521973 -0.00630432 2.65942383 -0.009552 C3.61357178 -0.00752777 4.56771973 -0.00550354 5.55078125 -0.00341797 C6.52362061 -0.00437469 7.49645996 -0.00533142 8.4987793 -0.00631714 C10.56005925 -0.00699905 12.62134133 -0.00514399 14.68261719 -0.00097656 C17.84965813 0.00437153 21.01655725 -0.00092119 24.18359375 -0.00732422 C26.1809899 -0.00666344 28.17838596 -0.00538228 30.17578125 -0.00341797 C31.1299292 -0.0054422 32.08407715 -0.00746643 33.06713867 -0.009552 C34.38355347 -0.00482376 34.38355347 -0.00482376 35.7265625 0 C36.50298096 0.00079559 37.27939941 0.00159119 38.0793457 0.00241089 C39.86328125 0.12939453 39.86328125 0.12939453 40.86328125 1.12939453 C41.12429527 6.99015995 40.47522011 12.33942486 39.3671875 18.08251953 C39.21418686 18.90516296 39.06118622 19.7278064 38.90354919 20.57537842 C38.41766591 23.17802761 37.92174726 25.77865014 37.42578125 28.37939453 C37.09637339 30.13969308 36.76759159 31.90010891 36.43945312 33.66064453 C34.07279147 46.29135367 34.07279147 46.29135367 32.86328125 51.12939453 C59.92328125 51.12939453 86.98328125 51.12939453 114.86328125 51.12939453 C115.19328125 47.82939453 115.52328125 44.52939453 115.86328125 41.12939453 C116.3748365 37.8770462 116.91010994 34.64196694 117.4921875 31.40283203 C117.64614487 30.52913971 117.80010223 29.65544739 117.95872498 28.75527954 C118.44428576 26.00435921 118.93493723 23.25437655 119.42578125 20.50439453 C119.75880283 18.62294414 120.0914881 16.74143418 120.42382812 14.85986328 C121.23247776 10.28222071 122.04802737 5.705885 122.86328125 1.12939453 C132.76328125 1.12939453 142.66328125 1.12939453 152.86328125 1.12939453 C151.69852868 16.27117797 151.69852868 16.27117797 149.67578125 22.62939453 C149.45293457 23.35022217 149.23008789 24.0710498 149.00048828 24.8137207 C146.85239331 31.53751139 144.11838222 37.86769855 140.86328125 44.12939453 C140.48961426 44.8599707 140.11594727 45.59054688 139.73095703 46.34326172 C133.6400444 58.16016041 126.94250766 69.53630995 118.57553101 79.9077301 C116.82597696 82.08822925 116.82597696 82.08822925 115.46281433 84.46893311 C113.19403353 87.78113617 111.03731347 90.54287604 107.01160622 91.6289463 C101.34413462 92.41877859 95.62941994 92.16065007 89.92578125 92.00830078 C88.07636625 91.99149652 86.22691094 91.97869393 84.37744141 91.9697113 C79.52992444 91.93548882 74.68486824 91.84721061 69.83831787 91.74737549 C64.88473802 91.65499701 59.93075705 91.61413746 54.9765625 91.56884766 C45.27105932 91.4725755 35.56737558 91.31914874 25.86328125 91.12939453 C25.78273499 92.06306351 25.78273499 92.06306351 25.70056152 93.01559448 C25.18042524 98.65781759 24.40030786 104.15001585 23.26953125 109.69970703 C23.11794556 110.46564178 22.96635986 111.23157654 22.81018066 112.02072144 C22.33231154 114.43285347 21.84832823 116.84369652 21.36328125 119.25439453 C20.87891451 121.67235719 20.39599725 124.09058118 19.91638184 126.50949097 C19.61989817 128.00382617 19.32069729 129.49762603 19.01818848 130.99075317 C18.31661109 134.51738259 17.73491013 138.01245694 17.32617188 141.5859375 C16.86328125 145.12939453 16.86328125 145.12939453 15.86328125 146.12939453 C14.42038338 146.22235269 12.9729834 146.24685966 11.52709961 146.24291992 C10.14578102 146.24280663 10.14578102 146.24280663 8.73655701 146.24269104 C7.73552444 146.23752975 6.73449188 146.23236847 5.703125 146.22705078 C4.68352188 146.22563583 3.66391876 146.22422089 2.61341858 146.22276306 C-0.65748982 146.2171455 -3.92833088 146.20459003 -7.19921875 146.19189453 C-9.41080631 146.18688179 -11.62239493 146.1823185 -13.83398438 146.17822266 C-19.26825232 146.16717037 -24.70248072 146.15041516 -30.13671875 146.12939453 C-30.50110219 138.44090392 -29.11955001 131.13221033 -27.79296875 123.58251953 C-27.54502468 122.14331159 -27.29763119 120.7040087 -27.05075073 119.26461792 C-26.39059983 115.42664465 -25.72193078 111.59020328 -25.05120087 107.75406647 C-24.49769981 104.58292016 -23.94890128 101.41096728 -23.40003777 98.23901558 C-20.16814232 79.56621814 -16.88833666 60.90159802 -13.51171875 42.25439453 C-13.35018311 41.35950317 -13.18864746 40.46461182 -13.0222168 39.54260254 C-12.57153226 37.05268089 -12.11678831 34.56354403 -11.66015625 32.07470703 C-11.53357635 31.37578339 -11.40699646 30.67685974 -11.27658081 29.95675659 C-10.41188109 25.2895815 -9.30684554 20.72651334 -8.13671875 16.12939453 C-7.43998009 12.81532483 -6.81686885 9.48727278 -6.19335938 6.15869141 C-5.00495644 0.00512856 -5.00495644 0.00512856 0 0 Z " fill="#C3090A" transform="translate(186.13671875,123.87060546875)"/>
<path d="M0 0 C0.87760986 -0.00315216 1.75521973 -0.00630432 2.65942383 -0.009552 C3.61357178 -0.00752777 4.56771973 -0.00550354 5.55078125 -0.00341797 C6.52362061 -0.00437469 7.49645996 -0.00533142 8.4987793 -0.00631714 C10.56005925 -0.00699905 12.62134133 -0.00514399 14.68261719 -0.00097656 C17.84965813 0.00437153 21.01655725 -0.00092119 24.18359375 -0.00732422 C26.1809899 -0.00666344 28.17838596 -0.00538228 30.17578125 -0.00341797 C31.1299292 -0.0054422 32.08407715 -0.00746643 33.06713867 -0.009552 C34.38355347 -0.00482376 34.38355347 -0.00482376 35.7265625 0 C36.50298096 0.00079559 37.27939941 0.00159119 38.0793457 0.00241089 C39.86328125 0.12939453 39.86328125 0.12939453 40.86328125 1.12939453 C41.00443286 3.79998304 40.90575232 6.45371691 40.86328125 9.12939453 C40.36828125 7.64439453 40.36828125 7.64439453 39.86328125 6.12939453 C39.20328125 6.12939453 38.54328125 6.12939453 37.86328125 6.12939453 C37.86328125 5.46939453 37.86328125 4.80939453 37.86328125 4.12939453 C37.18974609 4.1596875 36.51621094 4.18998047 35.82226562 4.22119141 C22.82894837 4.79690076 9.87080202 5.30386202 -3.13671875 5.12939453 C-3.26046875 6.20705078 -3.38421875 7.28470703 -3.51171875 8.39501953 C-4.32970278 14.94465225 -5.52897695 21.43552432 -6.67578125 27.93408203 C-7.73129634 34.09387906 -8.4712427 40.18531987 -8.88452148 46.42236328 C-9.25849425 50.43650662 -10.15983457 54.2218578 -11.13671875 58.12939453 C-11.79671875 58.12939453 -12.45671875 58.12939453 -13.13671875 58.12939453 C-13.18570313 59.21736328 -13.2346875 60.30533203 -13.28515625 61.42626953 C-13.67284602 69.27139141 -14.27637804 76.8727009 -15.73828125 84.60595703 C-16.09531119 86.86714663 -16.17991339 88.85215538 -16.07421875 91.12939453 C-16.13671875 94.12939453 -16.13671875 94.12939453 -17.58789062 96.00439453 C-19.40893156 98.50287187 -19.66020173 100.07663659 -19.98046875 103.12939453 C-20.09084473 104.09345215 -20.2012207 105.05750977 -20.31494141 106.05078125 C-20.42112793 107.06672363 -20.52731445 108.08266602 -20.63671875 109.12939453 C-21.47882101 116.39041282 -22.38730435 123.40823455 -24.48828125 130.43408203 C-25.40916184 134.26183871 -25.70195301 138.21650288 -26.13671875 142.12939453 C-12.93671875 141.79939453 0.26328125 141.46939453 13.86328125 141.12939453 C13.86328125 138.15939453 13.86328125 135.18939453 13.86328125 132.12939453 C14.48562203 129.78384964 15.15290218 127.44979331 15.86328125 125.12939453 C16.35302497 122.16176463 16.67561072 119.1827676 16.98828125 116.19189453 C17.07464844 115.41265625 17.16101563 114.63341797 17.25 113.83056641 C17.45979448 111.93076083 17.66230119 110.03015279 17.86328125 108.12939453 C18.52328125 108.12939453 19.18328125 108.12939453 19.86328125 108.12939453 C19.816875 107.45134766 19.77046875 106.77330078 19.72265625 106.07470703 C19.44986459 99.04057923 20.37031466 93.32494841 23.86328125 87.12939453 C26.73951176 85.69127928 29.20669186 85.99954475 32.421875 85.99658203 C33.10216263 85.99526276 33.78245026 85.99394348 34.48335266 85.99258423 C36.75587256 85.99064167 39.02827342 85.99708326 41.30078125 86.00439453 C42.07885132 86.00528076 42.85692139 86.00616699 43.65856934 86.00708008 C64.06592054 86.03403416 84.46464216 86.57473093 104.86328125 87.12939453 C105.19328125 86.13939453 105.52328125 85.14939453 105.86328125 84.12939453 C106.81203125 83.86126953 107.76078125 83.59314453 108.73828125 83.31689453 C112.13915691 82.41037326 112.13915691 82.41037326 113.55078125 79.06689453 C113.98390625 78.09751953 114.41703125 77.12814453 114.86328125 76.12939453 C115.85328125 75.79939453 116.84328125 75.46939453 117.86328125 75.12939453 C117.76015625 74.36626953 117.65703125 73.60314453 117.55078125 72.81689453 C117.70546875 71.48658203 117.70546875 71.48658203 117.86328125 70.12939453 C119.50661629 69.09149872 121.17571992 68.09371529 122.86328125 67.12939453 C124.2101804 64.55840051 124.2101804 64.55840051 124.86328125 62.12939453 C125.85328125 62.12939453 126.84328125 62.12939453 127.86328125 62.12939453 C127.86328125 60.80939453 127.86328125 59.48939453 127.86328125 58.12939453 C128.52328125 58.12939453 129.18328125 58.12939453 129.86328125 58.12939453 C129.94578125 57.26314453 130.02828125 56.39689453 130.11328125 55.50439453 C130.97691052 51.61806283 132.55737732 49.34368486 134.86328125 46.12939453 C135.55757504 44.81023633 136.2385862 43.48290047 136.86328125 42.12939453 C137.52328125 42.12939453 138.18328125 42.12939453 138.86328125 42.12939453 C138.96769531 41.45521484 139.07210937 40.78103516 139.1796875 40.08642578 C139.85104379 37.18233028 140.84911932 34.56172837 141.98388672 31.81103516 C145.60087255 22.98152522 147.13203404 14.61039279 147.86328125 5.12939453 C145.11321517 5.10237423 142.36341579 5.0825457 139.61328125 5.06689453 C138.83597656 5.05851563 138.05867187 5.05013672 137.2578125 5.04150391 C136.50371094 5.03828125 135.74960937 5.03505859 134.97265625 5.03173828 C134.28139648 5.02650146 133.59013672 5.02126465 132.87792969 5.01586914 C130.70981108 5.13804257 128.90717541 5.38411323 126.86328125 6.12939453 C122.81731622 15.35633128 122.61940023 26.26368478 122.29272461 36.21655273 C121.99016473 43.50815955 120.19285812 49.93706437 114.86328125 55.12939453 C111.87959191 55.84243905 109.95972517 56.06174575 106.98364258 55.98413086 C106.20583939 55.99169403 105.42803619 55.9992572 104.62666321 56.00704956 C102.06515989 56.02420981 99.50664276 55.99267429 96.9453125 55.96142578 C95.16361906 55.96573339 93.38193085 55.97340564 91.6002655 55.98429871 C86.91699419 56.00520968 82.2347703 55.98616714 77.55157471 55.95703125 C70.04539494 55.91752253 62.53911616 55.9405263 55.03290367 55.96002769 C52.40805987 55.96141246 49.78367105 55.94699572 47.15888977 55.92988586 C45.55750575 55.92687996 43.95612125 55.92411503 42.35473633 55.92163086 C41.25521637 55.90837517 41.25521637 55.90837517 40.13348389 55.89485168 C36.0469786 55.77447712 36.0469786 55.77447712 32.86328125 58.12939453 C32.20328125 56.14939453 31.54328125 54.16939453 30.86328125 52.12939453 C30.20328125 52.12939453 29.54328125 52.12939453 28.86328125 52.12939453 C28.5506592 46.08262593 29.72316594 40.90114799 31.23828125 35.06689453 C33.10768403 27.60170253 34.59667556 20.29688051 35.50390625 12.64892578 C35.86328125 10.12939453 35.86328125 10.12939453 36.86328125 8.12939453 C37.52328125 8.12939453 38.18328125 8.12939453 38.86328125 8.12939453 C39.963251 12.96270843 39.62627403 16.99528353 38.68359375 21.79345703 C38.55137421 22.50795013 38.41915466 23.22244324 38.28292847 23.95858765 C37.86088317 26.22576056 37.42467952 28.48994559 36.98828125 30.75439453 C36.70221837 32.28287096 36.41705328 33.81151571 36.1328125 35.34033203 C34.1114593 46.13668234 34.1114593 46.13668234 32.86328125 51.12939453 C59.92328125 51.12939453 86.98328125 51.12939453 114.86328125 51.12939453 C115.19328125 47.82939453 115.52328125 44.52939453 115.86328125 41.12939453 C116.3748365 37.8770462 116.91010994 34.64196694 117.4921875 31.40283203 C117.64614487 30.52913971 117.80010223 29.65544739 117.95872498 28.75527954 C118.44428576 26.00435921 118.93493723 23.25437655 119.42578125 20.50439453 C119.75880283 18.62294414 120.0914881 16.74143418 120.42382812 14.85986328 C121.23247776 10.28222071 122.04802737 5.705885 122.86328125 1.12939453 C132.76328125 1.12939453 142.66328125 1.12939453 152.86328125 1.12939453 C151.69852868 16.27117797 151.69852868 16.27117797 149.67578125 22.62939453 C149.45293457 23.35022217 149.23008789 24.0710498 149.00048828 24.8137207 C146.85239331 31.53751139 144.11838222 37.86769855 140.86328125 44.12939453 C140.48961426 44.8599707 140.11594727 45.59054688 139.73095703 46.34326172 C133.6400444 58.16016041 126.94250766 69.53630995 118.57553101 79.9077301 C116.82597696 82.08822925 116.82597696 82.08822925 115.46281433 84.46893311 C113.19403353 87.78113617 111.03731347 90.54287604 107.01160622 91.6289463 C101.34413462 92.41877859 95.62941994 92.16065007 89.92578125 92.00830078 C88.07636625 91.99149652 86.22691094 91.97869393 84.37744141 91.9697113 C79.52992444 91.93548882 74.68486824 91.84721061 69.83831787 91.74737549 C64.88473802 91.65499701 59.93075705 91.61413746 54.9765625 91.56884766 C45.27105932 91.4725755 35.56737558 91.31914874 25.86328125 91.12939453 C25.78273499 92.06306351 25.78273499 92.06306351 25.70056152 93.01559448 C25.18042524 98.65781759 24.40030786 104.15001585 23.26953125 109.69970703 C23.11794556 110.46564178 22.96635986 111.23157654 22.81018066 112.02072144 C22.33231154 114.43285347 21.84832823 116.84369652 21.36328125 119.25439453 C20.87891451 121.67235719 20.39599725 124.09058118 19.91638184 126.50949097 C19.61989817 128.00382617 19.32069729 129.49762603 19.01818848 130.99075317 C18.31661109 134.51738259 17.73491013 138.01245694 17.32617188 141.5859375 C16.86328125 145.12939453 16.86328125 145.12939453 15.86328125 146.12939453 C14.42038338 146.22235269 12.9729834 146.24685966 11.52709961 146.24291992 C10.14578102 146.24280663 10.14578102 146.24280663 8.73655701 146.24269104 C7.73552444 146.23752975 6.73449188 146.23236847 5.703125 146.22705078 C4.68352188 146.22563583 3.66391876 146.22422089 2.61341858 146.22276306 C-0.65748982 146.2171455 -3.92833088 146.20459003 -7.19921875 146.19189453 C-9.41080631 146.18688179 -11.62239493 146.1823185 -13.83398438 146.17822266 C-19.26825232 146.16717037 -24.70248072 146.15041516 -30.13671875 146.12939453 C-30.50110219 138.44090392 -29.11955001 131.13221033 -27.79296875 123.58251953 C-27.54502468 122.14331159 -27.29763119 120.7040087 -27.05075073 119.26461792 C-26.39059983 115.42664465 -25.72193078 111.59020328 -25.05120087 107.75406647 C-24.49769981 104.58292016 -23.94890128 101.41096728 -23.40003777 98.23901558 C-20.16814232 79.56621814 -16.88833666 60.90159802 -13.51171875 42.25439453 C-13.35018311 41.35950317 -13.18864746 40.46461182 -13.0222168 39.54260254 C-12.57153226 37.05268089 -12.11678831 34.56354403 -11.66015625 32.07470703 C-11.53357635 31.37578339 -11.40699646 30.67685974 -11.27658081 29.95675659 C-10.41188109 25.2895815 -9.30684554 20.72651334 -8.13671875 16.12939453 C-7.43998009 12.81532483 -6.81686885 9.48727278 -6.19335938 6.15869141 C-5.00495644 0.00512856 -5.00495644 0.00512856 0 0 Z " fill="#A70B10" transform="translate(186.13671875,123.87060546875)"/>
<path d="M0 0 C7.22307042 7.00195602 9.49709735 16.25860487 9.78125 25.984375 C9.74579044 33.04082669 8.22655262 39.66280016 6.53125 46.484375 C5.21125 46.154375 3.89125 45.824375 2.53125 45.484375 C2.38429688 44.66195312 2.23734375 43.83953125 2.0859375 42.9921875 C-0.1319719 31.95362693 -3.62418395 23.68296072 -12.98046875 17.015625 C-29.44991488 6.88058123 -49.83603174 5.99030232 -68.59375 9.421875 C-93.69106005 16.08350668 -120.45910535 27.72028469 -140.6796875 44.296875 C-142.46875 45.484375 -142.46875 45.484375 -146.46875 45.484375 C-146.04155439 41.13104835 -143.19052867 38.9656448 -140.09375 36.234375 C-139.55355225 35.75057373 -139.01335449 35.26677246 -138.45678711 34.76831055 C-130.49898907 27.74494651 -121.86832737 21.9655032 -112.7890625 16.4921875 C-110.58141533 15.15721027 -108.38835713 13.7977944 -106.2109375 12.4140625 C-90.01800408 2.15203481 -70.72033839 -6.39044966 -51.46875 -8.515625 C-50.5509375 -8.62390625 -49.633125 -8.7321875 -48.6875 -8.84375 C-32.37552017 -10.54664899 -13.59467506 -10.38838377 0 0 Z " fill="#A51013" transform="translate(374.46875,75.515625)"/>
<path d="M0 0 C1.32 0.33 2.64 0.66 4 1 C3.66226563 2.0415625 3.32453125 3.083125 2.9765625 4.15625 C-1.75641659 19.17493429 -6.32158883 35.52652509 1 50.5 C1.65779256 51.67169301 2.32425706 52.83856682 3 54 C3.28875 54.6909375 3.5775 55.381875 3.875 56.09375 C5.30948805 58.5244103 6.41263276 58.8999289 9 60 C11.25301745 61.20269772 13.50278131 62.41150191 15.75 63.625 C16.35199219 63.94984375 16.95398438 64.2746875 17.57421875 64.609375 C19.04977297 65.40570585 20.52492686 66.20277839 22 67 C22 67.33 22 67.66 22 68 C15.53182225 69.02902828 11.26631119 66.50054091 5.8125 63.1328125 C1.70991325 60.02168421 -0.67358865 56.53765381 -3 52 C-3.52980469 51.08863281 -4.05960938 50.17726563 -4.60546875 49.23828125 C-6.29873169 45.30630653 -6.58718971 41.98306741 -6.75 37.75 C-6.81380859 36.67105469 -6.81380859 36.67105469 -6.87890625 35.5703125 C-7.14580676 30.29161352 -7.14580676 30.29161352 -6 28 C-6.39938767 25.90178785 -6.39938767 25.90178785 -7 24 C-13.77928128 43.65565202 -19.22676794 65.28826849 -10 85 C-10 85.99 -10 86.98 -10 88 C-9.01 88.33 -8.02 88.66 -7 89 C-7 89.66 -7 90.32 -7 91 C-6.34 91 -5.68 91 -5 91 C-5 91.66 -5 92.32 -5 93 C-4.34 93 -3.68 93 -3 93 C-3 93.66 -3 94.32 -3 95 C15.14173945 102.74512723 35.39919125 103.21460788 53.84375 95.8671875 C54.5553125 95.58101563 55.266875 95.29484375 56 95 C57.32 95 58.64 95 60 95 C60.33 94.34 60.66 93.68 61 93 C63.33010909 92.32215008 65.66359824 91.65583207 68 91 C68.66 90.34 69.32 89.68 70 89 C71.75352088 88.32795818 73.52786138 87.70941481 75.3125 87.125 C79.6262348 85.61239169 82.52689845 84.0037635 86 81 C87.25666232 80.3469746 88.5294103 79.72443573 89.8125 79.125 C92.83188144 77.68612029 95.3654249 76.06004104 98 74 C100.56933726 71.99115523 102.61503817 70.71368913 105.625 69.3125 C109.95325221 67.2822819 113.56716663 64.43248573 117.3125 61.5 C117.92367676 61.02473877 118.53485352 60.54947754 119.16455078 60.05981445 C122.27045145 57.58465186 124.66581056 55.23868785 127 52 C129.6875 50.75 129.6875 50.75 132 50 C121.05355188 73.32514179 83.12812528 89.99355691 60.6640625 98.76171875 C57.131377 99.99482595 53.61921339 101.05369191 50 102 C48.8553125 102.31453125 47.710625 102.6290625 46.53125 102.953125 C31.2279284 106.61261495 12.70787487 107.88219427 -1.24609375 99.6796875 C-10.94375113 92.97015517 -16.21055938 84.6728222 -18.5859375 73.16015625 C-21.96713865 47.35457386 -12.73683812 22.03675167 0 0 Z " fill="#161520" transform="translate(152,223)"/>
<path d="M0 0 C1.02416016 -0.01224609 2.04832031 -0.02449219 3.10351562 -0.03710938 C8.36301632 -0.047322 12.62583024 0.17456334 17.5625 2.1875 C19.88944964 2.56281446 22.22226685 2.90667202 24.5625 3.1875 C24.5625 3.8475 24.5625 4.5075 24.5625 5.1875 C25.738125 5.4040625 25.738125 5.4040625 26.9375 5.625 C29.5625 6.1875 29.5625 6.1875 31.5625 7.1875 C31.5625 7.8475 31.5625 8.5075 31.5625 9.1875 C32.2225 9.1875 32.8825 9.1875 33.5625 9.1875 C33.5625 9.8475 33.5625 10.5075 33.5625 11.1875 C34.2225 11.1875 34.8825 11.1875 35.5625 11.1875 C36.0575 14.6525 36.0575 14.6525 36.5625 18.1875 C37.5525 17.8575 38.5425 17.5275 39.5625 17.1875 C41.45129267 20.96508535 41.12912635 25.46172375 41.375 29.625 C41.45169922 30.59244141 41.52839844 31.55988281 41.60742188 32.55664062 C41.68766602 33.94979492 41.68766602 33.94979492 41.76953125 35.37109375 C41.8260083 36.22243896 41.88248535 37.07378418 41.94067383 37.95092773 C41.5625 40.1875 41.5625 40.1875 39.54956055 41.98852539 C38.89383057 42.38418701 38.23810059 42.77984863 37.5625 43.1875 C37.0821682 41.60451974 36.60328388 40.02110022 36.125 38.4375 C35.85816406 37.55578125 35.59132813 36.6740625 35.31640625 35.765625 C34.5625 33.1875 34.5625 33.1875 34.11328125 31.0546875 C32.82845292 26.69902832 29.21771543 23.62431029 25.5625 21.1875 C25.5625 20.5275 25.5625 19.8675 25.5625 19.1875 C24.5725 19.06375 24.5725 19.06375 23.5625 18.9375 C19.57210837 17.93990209 16.17700357 16.11583317 12.5625 14.1875 C12.5625 13.5275 12.5625 12.8675 12.5625 12.1875 C11.386875 12.208125 10.21125 12.22875 9 12.25 C6.39256213 12.29574452 4.05543897 12.10747143 1.46875 11.69921875 C-11.73716326 9.96924411 -25.29602059 10.57168652 -38.2578125 13.53125 C-41.10320059 14.11850454 -43.54729895 14.31837703 -46.4375 14.1875 C-46.4375 14.8475 -46.4375 15.5075 -46.4375 16.1875 C-47.08976562 16.36925781 -47.74203125 16.55101563 -48.4140625 16.73828125 C-52.34043336 17.86754721 -55.97477566 18.95160132 -59.625 20.8125 C-62.90259541 22.41487998 -65.8268724 22.82643724 -69.4375 23.1875 C-67.98523858 19.35881081 -66.10431987 17.9336047 -62.4375 16.1875 C-61.1175 16.1875 -59.7975 16.1875 -58.4375 16.1875 C-58.4375 15.5275 -58.4375 14.8675 -58.4375 14.1875 C-49.90502558 10.13782305 -42.10899994 6.55991655 -32.59765625 5.57421875 C-31.88480469 5.44660156 -31.17195313 5.31898437 -30.4375 5.1875 C-30.1075 4.5275 -29.7775 3.8675 -29.4375 3.1875 C-26.671875 2.58984375 -26.671875 2.58984375 -23.1875 2.125 C-18.6042914 1.51726186 -18.6042914 1.51726186 -14.06323242 0.66894531 C-9.40946698 -0.18435319 -4.71855957 0.00295834 0 0 Z " fill="#C30A0D" transform="translate(339.4375,69.8125)"/>
<path d="M0 0 C5.53658319 0.20673404 11.07502823 0.29638108 16.61437988 0.39672852 C27.43173766 0.60953751 38.24086774 0.94959726 49.05187988 1.37329102 C50.21643949 4.86696984 49.83981127 6.45158311 49.12609863 10.02954102 C48.90631348 11.13426758 48.68652832 12.23899414 48.46008301 13.37719727 C48.22225098 14.5309082 47.98441895 15.68461914 47.73937988 16.87329102 C47.40003418 18.60385742 47.40003418 18.60385742 47.05383301 20.36938477 C45.30909998 28.98746087 45.30909998 28.98746087 43.05187988 32.37329102 C42.43793767 35.10786848 41.89902765 37.80258085 41.42687988 40.56079102 C41.29281738 41.31038086 41.15875488 42.0599707 41.02062988 42.83227539 C40.6914257 44.6781703 40.37081491 46.52559411 40.05187988 48.37329102 C39.39187988 48.37329102 38.73187988 48.37329102 38.05187988 48.37329102 C38.4809029 43.31081938 39.19889384 38.55452291 40.42687988 33.62329102 C42.51383129 24.31227705 43.70243298 14.81941934 45.05187988 5.37329102 C15.68187988 5.04329102 -13.68812012 4.71329102 -43.94812012 4.37329102 C-44.60812012 6.02329102 -45.26812012 7.67329102 -45.94812012 9.37329102 C-47.82312012 11.43579102 -47.82312012 11.43579102 -49.94812012 13.37329102 C-52.76388189 15.94770178 -54.39929933 17.5315455 -54.94812012 21.37329102 C-55.93812012 20.71329102 -56.92812012 20.05329102 -57.94812012 19.37329102 C-58.71124512 20.32204102 -59.47437012 21.27079102 -60.26062012 22.24829102 C-62.10346058 24.53938997 -63.41649428 25.68554046 -65.94812012 27.37329102 C-66.60812012 28.36329102 -67.26812012 29.35329102 -67.94812012 30.37329102 C-68.27812012 30.70329102 -68.60812012 31.03329102 -68.94812012 31.37329102 C-37.26812012 31.86829102 -37.26812012 31.86829102 -4.94812012 32.37329102 C-4.45312012 33.85829102 -4.45312012 33.85829102 -3.94812012 35.37329102 C-27.70812012 35.37329102 -51.46812012 35.37329102 -75.94812012 35.37329102 C-76.27812012 34.71329102 -76.60812012 34.05329102 -76.94812012 33.37329102 C-74.66096539 30.22845327 -72.26316906 27.76490888 -69.25964355 25.3371582 C-66.06505901 22.60153574 -63.8018294 19.86370862 -61.48815918 16.35864258 C-46.276821 -4.91470645 -23.64159365 -0.97718 0 0 Z " fill="#12131E" transform="translate(424.9481201171875,242.626708984375)"/>
<path d="M0 0 C0.66 0 1.32 0 2 0 C3.09996975 4.83331389 2.76299278 8.86588899 1.8203125 13.6640625 C1.62198318 14.73580215 1.62198318 14.73580215 1.41964722 15.82919312 C0.99760192 18.09636603 0.56139827 20.36055106 0.125 22.625 C-0.16106288 24.15347643 -0.44622797 25.68212118 -0.73046875 27.2109375 C-2.75182195 38.00728781 -2.75182195 38.00728781 -4 43 C23.06 42.67 50.12 42.34 78 42 C78.495 41.01 78.495 41.01 79 40 C79.66 40 80.32 40 81 40 C81.06058594 39.21753906 81.12117188 38.43507812 81.18359375 37.62890625 C81.30927734 36.11103516 81.30927734 36.11103516 81.4375 34.5625 C81.51871094 33.55316406 81.59992188 32.54382813 81.68359375 31.50390625 C82 29 82 29 83 28 C83.23287008 26.31816052 83.41264166 24.6287584 83.5625 22.9375 C83.68818359 21.55884766 83.68818359 21.55884766 83.81640625 20.15234375 C83.87699219 19.44207031 83.93757813 18.73179687 84 18 C84.33 18 84.66 18 85 18 C85.05434116 20.5419589 85.0938339 23.08273682 85.125 25.625 C85.14175781 26.33785156 85.15851563 27.05070312 85.17578125 27.78515625 C85.23889286 34.66432144 83.6333456 39.90738504 79.55145836 45.48700523 C77.40076574 47.5843781 75.26667579 47.84634292 72.32321167 47.91218567 C71.59627106 47.89322739 70.86933044 47.8742691 70.12036133 47.85473633 C69.34255814 47.8622995 68.56475494 47.86986267 67.76338196 47.87765503 C65.20187864 47.89481528 62.64336151 47.86327976 60.08203125 47.83203125 C58.30033781 47.83633886 56.5186496 47.8440111 54.73698425 47.85490417 C50.05371294 47.87581515 45.37148905 47.85677261 40.68829346 47.82763672 C33.18211369 47.78812799 25.67583491 47.81113177 18.16962242 47.83063316 C15.54477862 47.83201793 12.9203898 47.81760119 10.29560852 47.80049133 C8.6942245 47.79748543 7.09284 47.7947205 5.49145508 47.79223633 C4.39193512 47.77898064 4.39193512 47.77898064 3.27020264 47.76545715 C-0.81630265 47.64508259 -0.81630265 47.64508259 -4 50 C-4.66 48.02 -5.32 46.04 -6 44 C-6.66 44 -7.32 44 -8 44 C-8.31262205 37.95323139 -7.14011531 32.77175346 -5.625 26.9375 C-3.75559722 19.47230799 -2.26660569 12.16748598 -1.359375 4.51953125 C-1 2 -1 2 0 0 Z " fill="#AD0A11" transform="translate(223,132)"/>
<path d="M0 0 C0.99 0.99 0.99 0.99 2 2 C1.67 2.66 1.34 3.32 1 4 C0.34 4 -0.32 4 -1 4 C-1.33 4.99 -1.66 5.98 -2 7 C-6.31818182 11.77272727 -6.31818182 11.77272727 -10 13 C-10 13.66 -10 14.32 -10 15 C-11.8125 17.125 -11.8125 17.125 -14 19 C-14.99 19 -15.98 19 -17 19 C-17 19.66 -17 20.32 -17 21 C-18.28965176 22.37562854 -19.62689293 23.70766393 -21 25 C-21.66 25.66 -22.32 26.32 -23 27 C-25.09159027 28.18523448 -26.82366831 28.96473366 -29.1875 29.4375 C-29.785625 29.623125 -30.38375 29.80875 -31 30 C-31.495 31.485 -31.495 31.485 -32 33 C-32.99 33 -33.98 33 -35 33 C-35 33.66 -35 34.32 -35 35 C-39.47080482 39.06436802 -44.71108377 42.13517038 -50 45 C-50 45.66 -50 46.32 -50 47 C-51.051875 47.0825 -52.10375 47.165 -53.1875 47.25 C-56.9875821 47.69070848 -56.9875821 47.69070848 -59.34375 49.88671875 C-62.25329549 52.20151891 -64.8275407 53.297898 -68.3125 54.5625 C-69.45074219 54.98015625 -70.58898437 55.3978125 -71.76171875 55.828125 C-72.83035156 56.21484375 -73.89898437 56.6015625 -75 57 C-76.54229154 57.60256972 -78.0840826 58.20642488 -79.625 58.8125 C-83 60 -83 60 -86 60 C-86.7425 60.309375 -87.485 60.61875 -88.25 60.9375 C-95.21804045 63.62969744 -102.64970649 63.10862503 -110 63 C-110 62.67 -110 62.34 -110 62 C-101.585 61.505 -101.585 61.505 -93 61 C-93 60.34 -93 59.68 -93 59 C-91.85144531 58.56429687 -90.70289063 58.12859375 -89.51953125 57.6796875 C-80.18220761 54.11193945 -70.96875498 50.4319899 -62 46 C-61.33613281 45.67273926 -60.67226562 45.34547852 -59.98828125 45.00830078 C-50.23669534 40.1569312 -41.52229317 34.83817953 -33 28 C-31.89548804 27.15718772 -30.78862722 26.31744659 -29.6796875 25.48046875 C-21.72388622 19.42989314 -14.40377764 12.87229388 -7.1796875 5.96875 C-4.89606595 3.79870823 -2.59098208 1.80466414 0 0 Z " fill="#17131D" transform="translate(289,229)"/>
<path d="M0 0 C1.32 0.33 2.64 0.66 4 1 C3.66226563 2.0415625 3.32453125 3.083125 2.9765625 4.15625 C-1.75641659 19.17493429 -6.32158883 35.52652509 1 50.5 C1.65779256 51.67169301 2.32425706 52.83856682 3 54 C3.28875 54.6909375 3.5775 55.381875 3.875 56.09375 C5.30948805 58.5244103 6.41263276 58.8999289 9 60 C11.25301745 61.20269772 13.50278131 62.41150191 15.75 63.625 C16.35199219 63.94984375 16.95398438 64.2746875 17.57421875 64.609375 C19.04977297 65.40570585 20.52492686 66.20277839 22 67 C22 67.33 22 67.66 22 68 C15.53182225 69.02902828 11.26631119 66.50054091 5.8125 63.1328125 C1.70991325 60.02168421 -0.67358865 56.53765381 -3 52 C-3.52980469 51.08863281 -4.05960938 50.17726563 -4.60546875 49.23828125 C-6.29873169 45.30630653 -6.58718971 41.98306741 -6.75 37.75 C-6.81380859 36.67105469 -6.81380859 36.67105469 -6.87890625 35.5703125 C-7.14580676 30.29161352 -7.14580676 30.29161352 -6 28 C-6.39938767 25.90178785 -6.39938767 25.90178785 -7 24 C-7.33 24.66 -7.66 25.32 -8 26 C-8.66 26 -9.32 26 -10 26 C-10.29003906 26.92232422 -10.29003906 26.92232422 -10.5859375 27.86328125 C-10.84632813 28.67152344 -11.10671875 29.47976562 -11.375 30.3125 C-11.63023437 31.11300781 -11.88546875 31.91351563 -12.1484375 32.73828125 C-13 35 -13 35 -15 38 C-14.42657523 32.88531466 -13.27735085 28.31802668 -11.4375 23.5 C-11.05247314 22.4780957 -11.05247314 22.4780957 -10.65966797 21.43554688 C-7.7432956 13.95449257 -3.9495958 6.97695096 0 0 Z " fill="#1F1420" transform="translate(152,223)"/>
<path d="M0 0 C4.13942489 3.40640173 7.83739459 6.94968376 9.5625 12.125 C6.51237629 10.80111652 4.89508862 9.54116365 2.9375 6.875 C-2.3196403 0.54793918 -9.39954942 -3.35442155 -17.5078125 -4.63671875 C-28.2582891 -5.88742306 -28.2582891 -5.88742306 -38.4375 -3.875 C-37.78523438 -3.63265625 -37.13296875 -3.3903125 -36.4609375 -3.140625 C-31.35259306 -1.18167285 -26.74813678 0.7218657 -22.4375 4.125 C-22.4375 4.785 -22.4375 5.445 -22.4375 6.125 C-21.7775 6.125 -21.1175 6.125 -20.4375 6.125 C-17.60546875 11.0078125 -17.60546875 11.0078125 -16.4375 13.125 C-15.90640625 13.99253906 -15.3753125 14.86007813 -14.828125 15.75390625 C-12.97648811 20.24256534 -12.94483398 24.12711051 -13 28.9375 C-13.00757324 29.86457764 -13.01514648 30.79165527 -13.02294922 31.74682617 C-13.41908757 48.60583809 -18.63441115 67.28534516 -28.4375 81.125 C-28.9325 80.135 -28.9325 80.135 -29.4375 79.125 C-28.46281478 76.69736786 -27.42615166 74.363067 -26.3125 72 C-18.51270053 54.76039317 -11.33424253 34.41537605 -18.1875 15.75 C-21.54978266 8.25691292 -25.78732947 4.15868831 -33.4375 1.125 C-38.43344602 -0.57005311 -43.21848441 -1.32562994 -48.4375 -1.875 C-48.4375 -3.195 -48.4375 -4.515 -48.4375 -5.875 C-32.5082832 -8.6699981 -13.72366948 -9.5512718 0 0 Z " fill="#301822" transform="translate(356.4375,97.875)"/>
<path d="M0 0 C0.99 0 1.98 0 3 0 C2.69035138 2.41706304 2.37738885 4.83361887 2.0625 7.25 C1.97548828 7.93191406 1.88847656 8.61382812 1.79882812 9.31640625 C0.7940652 16.98237521 0.7940652 16.98237521 0 19 C-2.83462706 19.94487569 -4.49426674 20.11319062 -7.42289734 20.08229065 C-8.32733582 20.07525116 -9.23177429 20.06821167 -10.16362 20.06095886 C-11.15336319 20.04801285 -12.14310638 20.03506683 -13.1628418 20.02172852 C-14.72894699 20.0073172 -14.72894699 20.0073172 -16.32669067 19.99261475 C-19.78426775 19.95958365 -23.24172009 19.9192668 -26.69921875 19.87890625 C-29.093893 19.85460916 -31.48857189 19.8307654 -33.883255 19.80735779 C-40.19126666 19.744476 -46.49919635 19.67542087 -52.80712891 19.60510254 C-59.24182396 19.53445611 -65.67657719 19.46961706 -72.11132812 19.40429688 C-84.74094906 19.27523173 -97.37049407 19.13984531 -110 19 C-109.34 17.68 -108.68 16.36 -108 15 C-107.67 15.33 -107.34 15.66 -107 16 C-105.65927183 16.09527037 -104.31357497 16.1218877 -102.96946716 16.12025452 C-102.10143463 16.12162918 -101.2334021 16.12300385 -100.33906555 16.12442017 C-98.89976936 16.11902725 -98.89976936 16.11902725 -97.43139648 16.11352539 C-96.42663269 16.11367142 -95.4218689 16.11381744 -94.38665771 16.1139679 C-91.04811483 16.1132683 -87.70962695 16.10547374 -84.37109375 16.09765625 C-82.06323782 16.09579224 -79.75538149 16.09436826 -77.44752502 16.09336853 C-71.35982174 16.08954204 -65.27214214 16.07971065 -59.18444824 16.06866455 C-52.97778646 16.05845323 -46.77112087 16.05387151 -40.56445312 16.04882812 C-28.37629165 16.0380885 -16.18814779 16.02101052 -4 16 C-3.79503906 14.92878906 -3.59007812 13.85757812 -3.37890625 12.75390625 C-3.10697291 11.35673149 -2.83482648 9.95959819 -2.5625 8.5625 C-2.36043945 7.50192383 -2.36043945 7.50192383 -2.15429688 6.41992188 C-1.11328125 1.11328125 -1.11328125 1.11328125 0 0 Z " fill="#090915" transform="translate(459,316)"/>
<path d="M0 0 C0 3 0 3 -1.17407227 4.4987793 C-1.71604248 5.01867432 -2.2580127 5.53856934 -2.81640625 6.07421875 C-3.41243652 6.6554248 -4.0084668 7.23663086 -4.62255859 7.83544922 C-5.26273926 8.44662598 -5.90291992 9.05780273 -6.5625 9.6875 C-7.85992524 10.9525301 -9.155519 12.21944147 -10.44921875 13.48828125 C-11.06974121 14.09623535 -11.69026367 14.70418945 -12.32958984 15.33056641 C-14.27121844 17.27105988 -16.09456436 19.28601112 -17.875 21.375 C-27.46740907 32.56211688 -27.46740907 32.56211688 -32.5 34 C-33.325 34 -34.15 34 -35 34 C-34.34 33.67 -33.68 33.34 -33 33 C-33 32.34 -33 31.68 -33 31 C-55.44 31 -77.88 31 -101 31 C-101 30.67 -101 30.34 -101 30 C-99.70120659 29.99786247 -99.70120659 29.99786247 -98.37617493 29.99568176 C-90.2100032 29.9778408 -82.04437278 29.93619511 -73.87846088 29.86790943 C-69.68037608 29.83364082 -65.48265512 29.80852973 -61.28442383 29.80444336 C-57.23163248 29.80016001 -53.17966186 29.77169554 -49.12712669 29.72656822 C-47.58225475 29.71359417 -46.03728457 29.70928526 -44.49236488 29.71384621 C-42.32514838 29.7187535 -40.16032959 29.69266161 -37.9934082 29.65942383 C-36.76096878 29.65276199 -35.52852936 29.64610016 -34.25874329 29.63923645 C-29.28335813 28.66326281 -27.19621861 25.63926254 -24.3125 21.6875 C-23.879375 21.130625 -23.44625 20.57375 -23 20 C-22.34 20 -21.68 20 -21 20 C-20.505 18.515 -20.505 18.515 -20 17 C-18.328125 15.38671875 -18.328125 15.38671875 -16.25 13.6875 C-13.60274661 11.4577346 -11.27343584 9.27699079 -9.125 6.5625 C-8.073125 5.2940625 -8.073125 5.2940625 -7 4 C-6.34 4 -5.68 4 -5 4 C-5 3.34 -5 2.68 -5 2 C-4.360625 1.855625 -3.72125 1.71125 -3.0625 1.5625 C-1.02454854 1.18992819 -1.02454854 1.18992819 0 0 Z " fill="#14141F" transform="translate(482,197)"/>
<path d="M0 0 C2 1 2 1 2.61230469 2.79321289 C4.63957275 14.33255549 3.40855123 26.88163051 0 38 C0.66 38 1.32 38 2 38 C-0.5660576 50.68365614 -5.11856213 64.56242012 -13 75 C-15.14453125 76.19140625 -15.14453125 76.19140625 -17 77 C-17.33 76.34 -17.66 75.68 -18 75 C-17.34 75 -16.68 75 -16 75 C-15.7525 73.989375 -15.505 72.97875 -15.25 71.9375 C-14.0926612 67.85374737 -12.19032454 64.62772502 -10 61 C-8.10933715 57.71621716 -7.51204803 54.75501887 -7 51 C-6.34 51 -5.68 51 -5 51 C-5.495 49.515 -5.495 49.515 -6 48 C-5.34 48 -4.68 48 -4 48 C-3.53195419 45.54964251 -3.08305956 43.09718449 -2.6484375 40.640625 C-2.30753566 38.726646 -1.96384417 36.81303517 -1.59472656 34.90429688 C0.70599536 22.97810566 1.19876639 12.08876473 0 0 Z " fill="#151420" transform="translate(366,118)"/>
<path d="M0 0 C1.32451172 0.01353516 1.32451172 0.01353516 2.67578125 0.02734375 C3.67158203 0.04474609 3.67158203 0.04474609 4.6875 0.0625 C4.6875 0.3925 4.6875 0.7225 4.6875 1.0625 C2.0475 1.3925 -0.5925 1.7225 -3.3125 2.0625 C-3.3125 2.7225 -3.3125 3.3825 -3.3125 4.0625 C-4.13492188 4.28164062 -4.95734375 4.50078125 -5.8046875 4.7265625 C-17.15579839 7.95101201 -28.02741392 12.67926002 -34.55859375 23.0390625 C-36.26996813 26.28628568 -37.47361139 29.44533042 -38.375 33 C-38.684375 34.010625 -38.99375 35.02125 -39.3125 36.0625 C-40.7975 36.5575 -40.7975 36.5575 -42.3125 37.0625 C-42.27869645 29.11866615 -40.23282911 23.34254536 -35.3125 17.0625 C-34.01031512 16.02226334 -32.67776001 15.01845129 -31.3125 14.0625 C-30.36375 13.155 -29.415 12.2475 -28.4375 11.3125 C-20.60421048 4.51797279 -10.39170452 -0.13855606 0 0 Z " fill="#161624" transform="translate(371.3125,227.9375)"/>
<path d="M0 0 C2.43453485 10.95540684 0.66625805 21.27148547 -2 32 C-3.32 31.67 -4.64 31.34 -6 31 C-6.17015625 30.14277344 -6.3403125 29.28554687 -6.515625 28.40234375 C-7.91016572 21.82278194 -9.45946855 16.69013983 -13 11 C-12.67 10.34 -12.34 9.68 -12 9 C-11.01 9 -10.02 9 -9 9 C-8.87625 9.515625 -8.7525 10.03125 -8.625 10.5625 C-7.81358372 13.72702351 -6.9054087 16.86124985 -6 20 C-5.01 20 -4.02 20 -3 20 C-3 13.73 -3 7.46 -3 1 C-1 0 -1 0 0 0 Z " fill="#9B1116" transform="translate(383,90)"/>
<path d="M0 0 C0.98067192 0.01441132 0.98067192 0.01441132 1.9811554 0.02911377 C4.14558571 0.06213709 6.30981627 0.10245649 8.47412109 0.14282227 C9.97341199 0.16712014 11.47271031 0.19096387 12.97201538 0.21437073 C16.92094367 0.27724482 20.86974077 0.34630198 24.81854248 0.41662598 C28.84690367 0.48727945 32.87535798 0.55211427 36.90380859 0.61743164 C44.81016169 0.74648682 52.7163857 0.88207095 60.62255859 1.02172852 C60.62255859 1.68172852 60.62255859 2.34172852 60.62255859 3.02172852 C37.85255859 3.02172852 15.08255859 3.02172852 -8.37744141 3.02172852 C-8.37744141 2.36172852 -8.37744141 1.70172852 -8.37744141 1.02172852 C-5.53191432 -0.40103503 -3.18022151 -0.05359924 0 0 Z " fill="#0F101B" transform="translate(359.37744140625,273.978271484375)"/>
<path d="M0 0 C0.66 0.33 1.32 0.66 2 1 C2.59765625 3.984375 2.59765625 3.984375 3.0625 7.75 C3.58422007 11.8720197 4.12385452 15.93716609 5 20 C5.66 20 6.32 20 7 20 C7.103125 20.763125 7.20625 21.52625 7.3125 22.3125 C8.07450085 25.29123061 8.85087021 25.9368354 11 28 C11.2475 28.825 11.495 29.65 11.75 30.5 C13.62761478 34.25522957 16.11276327 34.63226856 20 36 C20 39 20 39 19 42 C18.54109375 41.51789063 18.0821875 41.03578125 17.609375 40.5390625 C16.99578125 39.90742188 16.3821875 39.27578125 15.75 38.625 C15.14671875 37.99851562 14.5434375 37.37203125 13.921875 36.7265625 C12.12740328 34.92374788 12.12740328 34.92374788 9.9921875 34.16015625 C6.95275504 32.39013381 5.98432858 29.89291086 4.375 26.8125 C3.78460938 25.70519531 3.19421875 24.59789062 2.5859375 23.45703125 C-0.37209451 17.00910433 -2.30493417 10.91480251 0 4 C0 2.68 0 1.36 0 0 Z " fill="#12131D" transform="translate(286,273)"/>
<path d="M0 0 C0.33 1.32 0.66 2.64 1 4 C-0.22976562 4.81404297 -0.22976562 4.81404297 -1.484375 5.64453125 C-2.56203125 6.35996094 -3.6396875 7.07539062 -4.75 7.8125 C-5.81734375 8.52019531 -6.8846875 9.22789063 -7.984375 9.95703125 C-10.91379159 11.87337955 -10.91379159 11.87337955 -13.140625 13.76171875 C-15 15 -15 15 -19 15 C-18.64211838 10.43429812 -15.28299111 8.13650788 -12.0625 5.3125 C-11.51142578 4.81427734 -10.96035156 4.31605469 -10.39257812 3.80273438 C-4.60380088 -1.38114026 -4.60380088 -1.38114026 0 0 Z " fill="#92151D" transform="translate(247,106)"/>
<path d="M0 0 C0.33 0 0.66 0 1 0 C0.67 3.3 0.34 6.6 0 10 C0.99 9.67 1.98 9.34 3 9 C3.66 9.66 4.32 10.32 5 11 C4.67 11.33 4.34 11.66 4 12 C29.74 12.33 55.48 12.66 82 13 C82 13.33 82 13.66 82 14 C80.55966904 14.01213028 80.55966904 14.01213028 79.09024048 14.02450562 C70.05503152 14.10188396 61.0199747 14.18960187 51.98496437 14.28752708 C47.33961619 14.33754069 42.69429131 14.38387009 38.04882812 14.421875 C33.56835616 14.45866408 29.08807684 14.50500624 24.60776901 14.55806351 C22.895729 14.57664149 21.18364764 14.59173678 19.47154617 14.60334396 C17.07929878 14.62014852 14.68749588 14.64916852 12.29541016 14.68115234 C11.58259384 14.68331253 10.86977753 14.68547272 10.13536072 14.68769836 C6.12114085 14.65113222 6.12114085 14.65113222 3 17 C2.34 15.02 1.68 13.04 1 11 C0.34 11 -0.32 11 -1 11 C-1.14285714 3.57142857 -1.14285714 3.57142857 0 0 Z " fill="#BB0D15" transform="translate(216,165)"/>
<path d="M0 0 C1.32 0.33 2.64 0.66 4 1 C3.01 3.97 2.02 6.94 1 10 C0.01 9.67 -0.98 9.34 -2 9 C-5.59597787 15.79240265 -8.31822144 22.80389419 -11 30 C-11.32484375 30.86238281 -11.6496875 31.72476563 -11.984375 32.61328125 C-12.65997847 34.40745462 -13.33070254 36.20346472 -14 38 C-15.77078012 33.85040081 -14.08027487 30.29890397 -12.625 26.3125 C-12.23030518 25.20757202 -12.23030518 25.20757202 -11.82763672 24.08032227 C-8.68636086 15.64316606 -4.40942274 7.82917505 0 0 Z " fill="#450F16" transform="translate(152,223)"/>
<path d="M0 0 C0.71875 1.64453125 0.71875 1.64453125 1 4 C-0.40625 6.69921875 -0.40625 6.69921875 -2.5 9.6875 C-3.61761719 11.28851563 -3.61761719 11.28851563 -4.7578125 12.921875 C-7.13340505 16.18314142 -9.54745022 19.39682255 -12.05859375 22.5546875 C-14.55348823 25.69715016 -16.99479091 28.87940656 -19.4375 32.0625 C-20.3111543 33.19925227 -21.18484859 34.33597381 -22.05859375 35.47265625 C-22.69925781 36.30667969 -23.33992188 37.14070313 -24 38 C-24.99 37.67 -25.98 37.34 -27 37 C-26.45472656 36.34515625 -25.90945313 35.6903125 -25.34765625 35.015625 C-16.10141708 23.82530478 -7.69728269 12.30109479 0 0 Z " fill="#2A1621" transform="translate(322,185)"/>
<path d="M0 0 C0.66 1.32 1.32 2.64 2 4 C2.66 4 3.32 4 4 4 C3.33763885 19.62769775 2.24679238 34.4863927 -4 49 C-4.99 49.495 -4.99 49.495 -6 50 C-5.7525 48.865625 -5.505 47.73125 -5.25 46.5625 C-5.07210938 45.72976562 -4.89421875 44.89703125 -4.7109375 44.0390625 C-4.1944062 41.83103311 -3.60651472 39.63932189 -2.9765625 37.4609375 C0.5177873 24.98511388 0.4230334 12.88462113 0 0 Z " fill="#14131F" transform="translate(342,114)"/>
<path d="M0 0 C0.33 0.99 0.66 1.98 1 3 C1.66 3 2.32 3 3 3 C3 3.66 3 4.32 3 5 C6.08061102 6.54030551 9.32910283 6.18377376 12.7109375 6.203125 C13.47548248 6.20882507 14.24002747 6.21452515 15.02774048 6.22039795 C16.64673477 6.2298497 18.26574832 6.23638263 19.88476562 6.24023438 C22.35841558 6.24993496 24.83123281 6.28095335 27.3046875 6.3125 C28.87759923 6.31903068 30.45051691 6.3242809 32.0234375 6.328125 C32.76210052 6.3404718 33.50076355 6.3528186 34.2618103 6.36553955 C38.54568805 6.34701373 40.82983047 5.89430338 44 3 C44.99 2.67 45.98 2.34 47 2 C47.042721 3.66611905 47.04063832 5.33382885 47 7 C46 8 46 8 44.13340759 8.12025452 C43.31844315 8.11803391 42.5034787 8.11581329 41.66381836 8.11352539 C40.28249977 8.11341209 40.28249977 8.11341209 38.87327576 8.11329651 C37.87224319 8.10813522 36.87121063 8.10297394 35.83984375 8.09765625 C34.82024063 8.0962413 33.80063751 8.09482635 32.75013733 8.09336853 C29.47922893 8.08775097 26.20838787 8.0751955 22.9375 8.0625 C20.72591244 8.05748726 18.51432382 8.05292396 16.30273438 8.04882812 C10.86846643 8.03777584 5.43423803 8.02102063 0 8 C0 5.36 0 2.72 0 0 Z " fill="#910E12" transform="translate(156,262)"/>
<path d="M0 0 C2.29476878 3.44215317 2.15319562 3.98933546 1.5390625 7.88671875 C1.39726562 8.82451172 1.25546875 9.76230469 1.109375 10.72851562 C0.94953125 11.70498047 0.7896875 12.68144531 0.625 13.6875 C0.47289062 14.67556641 0.32078125 15.66363281 0.1640625 16.68164062 C-0.21333968 19.122961 -0.60174114 21.56200998 -1 24 C-3.42999536 21.72635823 -4.42805835 20.31726155 -5 17 C-5.66 17.66 -6.32 18.32 -7 19 C-5.74646681 11.93463111 -3.43796251 6.28543527 0 0 Z " fill="#151117" transform="translate(150,230)"/>
<path d="M0 0 C0.66 0 1.32 0 2 0 C0.65656712 4.03029865 -1.93901421 5.04572584 -5.4375 7.0625 C-9.98604968 9.66368763 -9.98604968 9.66368763 -14 13 C-15.64555274 13.73660722 -17.31595365 14.41874391 -19 15.0625 C-22.54955475 16.41920836 -22.54955475 16.41920836 -26 18 C-27.99960012 18.039992 -30.00047242 18.04346799 -32 18 C-28.65996751 15.77331167 -25.15991947 14.06943785 -21.5625 12.3125 C-10.05588079 7.18526649 -10.05588079 7.18526649 0 0 Z " fill="#221822" transform="translate(246,264)"/>
<path d="M0 0 C0.99 0.33 1.98 0.66 3 1 C3 3.64 3 6.28 3 9 C2.505 7.515 2.505 7.515 2 6 C1.34 6 0.68 6 0 6 C0 5.34 0 4.68 0 4 C-0.67353516 4.03029297 -1.34707031 4.06058594 -2.04101562 4.09179688 C-15.03433288 4.66750623 -27.99247923 5.17446749 -41 5 C-41 4.34 -41 3.68 -41 3 C-27.47 3 -13.94 3 0 3 C0 2.01 0 1.02 0 0 Z " fill="#AC0C12" transform="translate(224,124)"/>
<path d="M0 0 C0.99 0.66 1.98 1.32 3 2 C3.38063221 4.3260857 3.71269945 6.66055264 4 9 C4.99 10.485 4.99 10.485 6 12 C6.33 12 6.66 12 7 12 C7 13.65 7 15.3 7 17 C7.99 16.67 8.98 16.34 10 16 C9.67 18.64 9.34 21.28 9 24 C7.68 23.67 6.36 23.34 5 23 C4.82984375 22.14277344 4.6596875 21.28554687 4.484375 20.40234375 C3.08983428 13.82278194 1.54053145 8.69013983 -2 3 C-1 1 -1 1 0 0 Z " fill="#871618" transform="translate(372,98)"/>
<path d="M0 0 C1.5126537 3.92133795 0.42265487 6.65626817 -0.8125 10.5625 C-2.66121249 16.67156723 -4.02239606 22.69702722 -5 29 C-5.66 28.67 -6.32 28.34 -7 28 C-6.13599792 17.83830395 -4.59866232 9.26753322 0 0 Z " fill="#161019" transform="translate(142,249)"/>
<path d="M0 0 C7.26 0 14.52 0 22 0 C22.20625 2.43375 22.4125 4.8675 22.625 7.375 C22.73062256 8.52234619 22.73062256 8.52234619 22.83837891 9.69287109 C22.97160117 11.45771308 22.98806861 13.23017712 23 15 C22.34 15.66 21.68 16.32 21 17 C19.99264311 11.6274299 20.23978568 7.40596852 21 2 C18.27076612 1.9729183 15.54180363 1.95312153 12.8125 1.9375 C12.04357422 1.92912109 11.27464844 1.92074219 10.48242188 1.91210938 C6.51473211 1.89508066 2.87428766 2.01395885 -1 3 C-0.67 2.01 -0.34 1.02 0 0 Z " fill="#AF0C13" transform="translate(313,127)"/>
<path d="M0 0 C0.5775 0.2475 1.155 0.495 1.75 0.75 C2.08 2.07 2.41 3.39 2.75 4.75 C-2.54230769 8.81153846 -2.54230769 8.81153846 -6.125 8.5 C-6.82625 8.2525 -7.5275 8.005 -8.25 7.75 C-6.64613593 4.0076505 -4.56199942 -0.50688882 0 0 Z " fill="#961922" transform="translate(245.25,105.25)"/>
<path d="M0 0 C4.09050855 -0.18593221 6.42420347 0.11661545 10 2 C12.60923839 3.02605995 15.23011514 4.01597288 17.85546875 5 C20 6 20 6 21 8 C19.7625 7.71125 18.525 7.4225 17.25 7.125 C11.53870489 5.84975069 5.77761039 4.91894311 0 4 C0 2.68 0 1.36 0 0 Z " fill="#33181E" transform="translate(308,92)"/>
<path d="M0 0 C0.79921875 0.00902344 1.5984375 0.01804688 2.421875 0.02734375 C3.02515625 0.03894531 3.6284375 0.05054688 4.25 0.0625 C4.25 0.7225 4.25 1.3825 4.25 2.0625 C5.9 2.0625 7.55 2.0625 9.25 2.0625 C9.25 2.3925 9.25 2.7225 9.25 3.0625 C6.35452736 3.39925279 3.45868928 3.73201734 0.5625 4.0625 C-0.25412109 4.15789062 -1.07074219 4.25328125 -1.91210938 4.3515625 C-5.87860052 4.80120522 -9.75002463 5.19284543 -13.75 5.0625 C-12.76 4.4025 -11.77 3.7425 -10.75 3.0625 C-10.09 2.4025 -9.43 1.7425 -8.75 1.0625 C-5.80049953 0.06042612 -3.09837394 -0.04556432 0 0 Z " fill="#12131D" transform="translate(369.75,190.9375)"/>
<path d="M0 0 C0.66 0 1.32 0 2 0 C3.97921015 3.95842029 3.19196694 8.20259886 2.1875 12.375 C1.795625 13.24125 1.40375 14.1075 1 15 C0.01 15.33 -0.98 15.66 -2 16 C-1.85764543 14.27054347 -1.71095618 12.54144346 -1.5625 10.8125 C-1.48128906 9.84957031 -1.40007812 8.88664062 -1.31640625 7.89453125 C-1.02333849 5.21350398 -0.57296246 2.6337014 0 0 Z " fill="#121420" transform="translate(462,293)"/>
<path d="M0 0 C0.70640625 -0.01224609 1.4128125 -0.02449219 2.140625 -0.03710938 C5.89921497 -0.04778719 7.54359134 0.04989423 10.75 2.1875 C6.46 2.1875 2.17 2.1875 -2.25 2.1875 C-1.92 3.1775 -1.59 4.1675 -1.25 5.1875 C-5.93738665 4.28026387 -10.59193744 3.2327733 -15.25 2.1875 C-15.25 1.8575 -15.25 1.5275 -15.25 1.1875 C-10.12812388 0.34949671 -5.18678448 0.00483842 0 0 Z " fill="#151116" transform="translate(328.25,91.8125)"/>
<path d="M0 0 C-1 1.5 -1 1.5 -3 3 C-4.91510828 3.03301911 -6.83256901 3.05332568 -8.74609375 2.96875 C-11.21095831 3.0029249 -13.301504 3.45703858 -15.6875 4.0625 C-19.1184086 4.91132341 -21.55704207 5.11063159 -25 4 C-21.43240937 1.62160624 -18.98688387 1.40672049 -14.75 0.875 C-13.46609375 0.70742187 -12.1821875 0.53984375 -10.859375 0.3671875 C-7.21030004 0.0200083 -3.66261231 -0.06642043 0 0 Z " fill="#B90F0F" transform="translate(335,70)"/>
<path d="M0 0 C0.33 0.66 0.66 1.32 1 2 C-0.19919564 4.52867427 -1.44841236 6.93764544 -2.8125 9.375 C-3.5484934 10.71597227 -4.28417933 12.05711335 -5.01953125 13.3984375 C-5.36580566 14.02459961 -5.71208008 14.65076172 -6.06884766 15.29589844 C-7.09511295 17.17406618 -8.0666273 19.07399285 -9 21 C-9.66 21 -10.32 21 -11 21 C-10.566875 19.9790625 -10.566875 19.9790625 -10.125 18.9375 C-8.91004504 15.9604371 -8.91004504 15.9604371 -8.1875 12.5625 C-6.76171307 8.28513922 -5.01141495 6.31255644 -2 3 C-1.34 2.01 -0.68 1.02 0 0 Z " fill="#17121D" transform="translate(331,173)"/>
<path d="M0 0 C0.8353125 0.37125 0.8353125 0.37125 1.6875 0.75 C0.71390613 4.02481575 -0.00316641 5.51205109 -2.75 7.625 C-5.3125 8.75 -5.3125 8.75 -8.3125 7.75 C-7.98035849 4.65001254 -7.2579988 3.6954988 -5 1.4375 C-2.3125 -0.25 -2.3125 -0.25 0 0 Z " fill="#9B1515" transform="translate(255.3125,100.25)"/>
<path d="M0 0 C1.32 0.33 2.64 0.66 4 1 C3.01 3.97 2.02 6.94 1 10 C-0.32 10 -1.64 10 -3 10 C-3.33 9.34 -3.66 8.68 -4 8 C-3.22265625 6.0546875 -3.22265625 6.0546875 -2.0625 3.875 C-1.49208984 2.78832031 -1.49208984 2.78832031 -0.91015625 1.6796875 C-0.60980469 1.12539062 -0.30945313 0.57109375 0 0 Z " fill="#760B0E" transform="translate(152,223)"/>
<path d="M0 0 C2.29476878 3.44215317 2.15319562 3.98933546 1.5390625 7.88671875 C1.39726562 8.82451172 1.25546875 9.76230469 1.109375 10.72851562 C0.94953125 11.70498047 0.7896875 12.68144531 0.625 13.6875 C0.39683594 15.16959961 0.39683594 15.16959961 0.1640625 16.68164062 C-0.21333968 19.122961 -0.60174114 21.56200998 -1 24 C-1.33 24 -1.66 24 -2 24 C-2.2144997 15.72984476 -2.07422976 8.03764031 0 0 Z " fill="#360E15" transform="translate(150,230)"/>
<path d="M0 0 C1.49660156 0.57427734 1.49660156 0.57427734 3.0234375 1.16015625 C4.02632813 1.54042969 5.02921875 1.92070312 6.0625 2.3125 C6.83335937 2.61285156 7.60421875 2.91320312 8.3984375 3.22265625 C8.3984375 3.88265625 8.3984375 4.54265625 8.3984375 5.22265625 C4.80226934 6.42137897 4.10922111 5.94765912 0.7734375 4.41015625 C-0.02320313 4.05308594 -0.81984375 3.69601562 -1.640625 3.328125 C-3.6015625 2.22265625 -3.6015625 2.22265625 -4.6015625 0.22265625 C-2.6015625 -0.77734375 -2.6015625 -0.77734375 0 0 Z " fill="#16151E" transform="translate(347.6015625,291.77734375)"/>
<path d="M0 0 C0.33 0 0.66 0 1 0 C1.08152344 2.54232342 1.14073716 5.08199202 1.1875 7.625 C1.22520508 8.69427734 1.22520508 8.69427734 1.26367188 9.78515625 C1.33024446 14.62276416 0.55559453 17.74738338 -2 22 C-3.04239682 18.87280954 -2.97104316 17.70741726 -2.44140625 14.55078125 C-2.30283203 13.70322266 -2.16425781 12.85566406 -2.02148438 11.98242188 C-1.87001953 11.10134766 -1.71855469 10.22027344 -1.5625 9.3125 C-1.41490234 8.41982422 -1.26730469 7.52714844 -1.11523438 6.60742188 C-0.74992619 4.40378863 -0.37795112 2.201494 0 0 Z " fill="#BB0E15" transform="translate(181,137)"/>
<path d="M0 0 C-2.64 0.99 -5.28 1.98 -8 3 C-8 3.66 -8 4.32 -8 5 C-9.98 5.33 -11.96 5.66 -14 6 C-14 5.34 -14 4.68 -14 4 C-14.99 3.67 -15.98 3.34 -17 3 C-14.92085336 2.29994051 -12.83648414 1.61537756 -10.75 0.9375 C-9.58984375 0.55464844 -8.4296875 0.17179687 -7.234375 -0.22265625 C-4 -1 -4 -1 0 0 Z " fill="#991218" transform="translate(316,70)"/>
<path d="M0 0 C0.33 0 0.66 0 1 0 C1.33 2.31 1.66 4.62 2 7 C2.99 7.33 3.98 7.66 5 8 C5.625 10.375 5.625 10.375 6 13 C5.34 13.66 4.68 14.32 4 15 C-0.02047289 9.034137 -1.19609772 7.17658629 0 0 Z " fill="#111320" transform="translate(328,268)"/>
<path d="M0 0 C0 3.43830115 -0.37400757 6.61964088 -1 10 C-1.99 10.495 -1.99 10.495 -3 11 C-3.33 10.34 -3.66 9.68 -4 9 C-4.99 9.66 -5.98 10.32 -7 11 C-6.34 9.68 -5.68 8.36 -5 7 C-4.34 7 -3.68 7 -3 7 C-3.061875 6.21625 -3.12375 5.4325 -3.1875 4.625 C-3.125625 3.75875 -3.06375 2.8925 -3 2 C-2.01 1.34 -1.02 0.68 0 0 Z " fill="#AD1117" transform="translate(307,192)"/>
<path d="M0 0 C0 0.99 0 1.98 0 3 C-5.28 3 -10.56 3 -16 3 C-16 2.67 -16 2.34 -16 2 C-10.54538831 0.61470179 -5.63281599 -0.2396943 0 0 Z " fill="#BC110D" transform="translate(331,77)"/>
<path d="M0 0 C0 0.33 0 0.66 0 1 C-2.64 1.33 -5.28 1.66 -8 2 C-8 2.66 -8 3.32 -8 4 C-9.98 4.33 -11.96 4.66 -14 5 C-14 4.34 -14 3.68 -14 3 C-14.99 2.67 -15.98 2.34 -17 2 C-11.21642935 -0.01167675 -6.09781001 -0.22084624 0 0 Z " fill="#0F111E" transform="translate(376,228)"/>
<path d="M0 0 C1.77305664 0.25587405 3.54344608 0.53027739 5.3125 0.8125 C6.79169922 1.03873047 6.79169922 1.03873047 8.30078125 1.26953125 C11.12699269 2.03436705 12.1959128 2.75258762 14 5 C7.88225104 5.49940808 4.97504047 4.24900602 0 1 C0 0.67 0 0.34 0 0 Z " fill="#15131C" transform="translate(160,286)"/>
<path d="M0 0 C2.27505004 2.16671432 4.23575092 4.39563231 6 7 C6 7.66 6 8.32 6 9 C6.9590625 9.1546875 6.9590625 9.1546875 7.9375 9.3125 C8.9584375 9.6528125 8.9584375 9.6528125 10 10 C10.33 10.99 10.66 11.98 11 13 C6.78209731 11.67786355 5.02897493 10.22699886 2.6875 6.5 C2.17574219 5.7059375 1.66398438 4.911875 1.13671875 4.09375 C0 2 0 2 0 0 Z " fill="#121018" transform="translate(149,273)"/>
<path d="M0 0 C1.65 0 3.3 0 5 0 C4.01 1.98 3.02 3.96 2 6 C1.34 6 0.68 6 0 6 C-0.33 6.99 -0.66 7.98 -1 9 C-0.67 6.03 -0.34 3.06 0 0 Z " fill="#861213" transform="translate(309,125)"/>
<path d="M0 0 C1.74166645 3.23452341 3.08977798 6.43496376 4 10 C3.01 11.485 3.01 11.485 2 13 C1.46845258 11.39935157 0.95011647 9.79431126 0.4375 8.1875 C0.14746094 7.29417969 -0.14257812 6.40085937 -0.44140625 5.48046875 C-1 3 -1 3 0 0 Z " fill="#A01210" transform="translate(375,100)"/>
<path d="M0 0 C1.32830615 3.98491845 0.23204404 5.40048548 -1.4375 9.1875 C-1.91058594 10.27417969 -2.38367188 11.36085938 -2.87109375 12.48046875 C-3.42990234 13.72763672 -3.42990234 13.72763672 -4 15 C-5.3480932 11.339671 -4.6336844 9.33449773 -3.125 5.8125 C-2.75632813 4.93207031 -2.38765625 4.05164063 -2.0078125 3.14453125 C-1 1 -1 1 0 0 Z " fill="#3B141C" transform="translate(142,246)"/>
<path d="M0 0 C0.99 0.33 1.98 0.66 3 1 C0.03 3.64 -2.94 6.28 -6 9 C-6 6 -6 6 -4.6875 4.39453125 C-4.130625 3.87246094 -3.57375 3.35039062 -3 2.8125 C-2.443125 2.28269531 -1.88625 1.75289062 -1.3125 1.20703125 C-0.6628125 0.60955078 -0.6628125 0.60955078 0 0 Z " fill="#221822" transform="translate(274,242)"/>
<path d="M0 0 C0.99 0.495 0.99 0.495 2 1 C2 1.66 2 2.32 2 3 C3.32 3.33 4.64 3.66 6 4 C5.67 5.32 5.34 6.64 5 8 C3.68 7.67 2.36 7.34 1 7 C0.67 4.69 0.34 2.38 0 0 Z " fill="#63181F" transform="translate(376,114)"/>
<path d="M0 0 C3.3 0.33 6.6 0.66 10 1 C9.67 2.32 9.34 3.64 9 5 C8.1646875 4.566875 8.1646875 4.566875 7.3125 4.125 C4.91505355 2.9586747 2.48403061 1.9660119 0 1 C0 0.67 0 0.34 0 0 Z " fill="#14151D" transform="translate(338,330)"/>
<path d="M0 0 C0.33 0.99 0.66 1.98 1 3 C1.99 3.33 2.98 3.66 4 4 C1 6 1 6 -3 6 C-2.42655063 3.13275314 -2.1385485 2.1385485 0 0 Z " fill="#B11519" transform="translate(231,115)"/>
<path d="M0 0 C-0.33 0.99 -0.66 1.98 -1 3 C-1.99 3 -2.98 3 -4 3 C-4 3.66 -4 4.32 -4 5 C-4.99 5 -5.98 5 -7 5 C-6.625 3.0625 -6.625 3.0625 -6 1 C-4 0 -4 0 0 0 Z " fill="#BB0E08" transform="translate(352,73)"/>
<path d="M0 0 C1.45880109 0.14107747 2.91703551 0.28802415 4.375 0.4375 C5.59316406 0.55931641 5.59316406 0.55931641 6.8359375 0.68359375 C9 1 9 1 11 2 C10.67 2.99 10.34 3.98 10 5 C10 4.34 10 3.68 10 3 C8.02 3.99 8.02 3.99 6 5 C6 4.34 6 3.68 6 3 C5.195625 2.87625 4.39125 2.7525 3.5625 2.625 C2.716875 2.41875 1.87125 2.2125 1 2 C0.67 1.34 0.34 0.68 0 0 Z " fill="#151422" transform="translate(317,322)"/>
<path d="M0 0 C2.64 0 5.28 0 8 0 C8 0.99 8 1.98 8 3 C5.69 3 3.38 3 1 3 C0.67 2.01 0.34 1.02 0 0 Z " fill="#A00D12" transform="translate(284,212)"/>
<path d="M0 0 C1.32 0 2.64 0 4 0 C4 0.99 4 1.98 4 3 C3.01 3.33 2.02 3.66 1 4 C-0.21869929 6.50447516 -0.21869929 6.50447516 -1 9 C-2.25640898 6.48718205 -2.20872719 4.78302919 -2 2 C-1.34 1.34 -0.68 0.68 0 0 Z " fill="#B90E10" transform="translate(310,183)"/>
<path d="M0 0 C1.98 0 3.96 0 6 0 C6 1.98 6 3.96 6 6 C3.97945196 4.35830472 1.97956942 2.69088222 0 1 C0 0.67 0 0.34 0 0 Z " fill="#89111A" transform="translate(333,125)"/>
<path d="M0 0 C1.98 0 3.96 0 6 0 C5.01 0.495 5.01 0.495 4 1 C4 1.66 4 2.32 4 3 C4.99 3.33 5.98 3.66 7 4 C4.69 4 2.38 4 0 4 C0 2.68 0 1.36 0 0 Z " fill="#6A1B20" transform="translate(308,92)"/>
<path d="M0 0 C-0.66 0 -1.32 0 -2 0 C-2 0.66 -2 1.32 -2 2 C-6.455 3.485 -6.455 3.485 -11 5 C-9 1 -9 1 -6.0625 -0.3125 C-3 -1 -3 -1 0 0 Z " fill="#97130F" transform="translate(283,84)"/>
<path d="M0 0 C0 1.65 0 3.3 0 5 C-1.65 5.33 -3.3 5.66 -5 6 C-2.84615385 0 -2.84615385 0 0 0 Z " fill="#93121B" transform="translate(203,264)"/>
<path d="M0 0 C0.33 1.32 0.66 2.64 1 4 C1.66 4 2.32 4 3 4 C3 6.97 3 9.94 3 13 C2.67 13 2.34 13 2 13 C1.67 11.35 1.34 9.7 1 8 C0.67 8 0.34 8 0 8 C0 5.36 0 2.72 0 0 Z " fill="#AD1017" transform="translate(380,96)"/>
<path d="M0 0 C2.64 0 5.28 0 8 0 C8.33 0.99 8.66 1.98 9 3 C3.46153846 3.36923077 3.46153846 3.36923077 1.125 1.5 C0.75375 1.005 0.3825 0.51 0 0 Z " fill="#A8090C" transform="translate(336,81)"/>
<path d="M0 0 C0.78375 0.04125 1.5675 0.0825 2.375 0.125 C3.035 1.445 3.695 2.765 4.375 4.125 C-0.08 3.135 -0.08 3.135 -4.625 2.125 C-2.625 0.125 -2.625 0.125 0 0 Z " fill="#AF080F" transform="translate(352.625,67.875)"/>
<path d="M0 0 C1.32 0.33 2.64 0.66 4 1 C3.67 2.32 3.34 3.64 3 5 C1.68 5 0.36 5 -1 5 C-1.33 4.34 -1.66 3.68 -2 3 C-1.34 2.01 -0.68 1.02 0 0 Z " fill="#A40D10" transform="translate(152,223)"/>
<path d="M0 0 C1.45606519 4.52092968 0.27032841 7.51648796 -1 12 C-1.66 11.01 -2.32 10.02 -3 9 C-2.5390625 6.73828125 -2.5390625 6.73828125 -1.625 4.3125 C-1.32851562 3.50425781 -1.03203125 2.69601563 -0.7265625 1.86328125 C-0.48679688 1.24839844 -0.24703125 0.63351563 0 0 Z " fill="#10040C" transform="translate(149,232)"/>
<path d="M0 0 C0 2 0 4 0 6 C-1.98 6.66 -3.96 7.32 -6 8 C-4.02 5.36 -2.04 2.72 0 0 Z " fill="#15141A" transform="translate(305,213)"/>
<path d="M0 0 C0.99 0.66 1.98 1.32 3 2 C2.67 3.32 2.34 4.64 2 6 C1.34 6 0.68 6 0 6 C-0.66 4.35 -1.32 2.7 -2 1 C-1.34 0.67 -0.68 0.34 0 0 Z " fill="#911711" transform="translate(372,98)"/>
<path d="M0 0 C1.65 0.33 3.3 0.66 5 1 C5 2.32 5 3.64 5 5 C4.34 5 3.68 5 3 5 C3 4.34 3 3.68 3 3 C0.69 3 -1.62 3 -4 3 C-2.68 2.67 -1.36 2.34 0 2 C0 1.34 0 0.68 0 0 Z " fill="#AC0D0E" transform="translate(361,70)"/>
<path d="M0 0 C2.97 0 5.94 0 9 0 C8.01 1.485 8.01 1.485 7 3 C5.68 3 4.36 3 3 3 C3 2.34 3 1.68 3 1 C2.01 0.67 1.02 0.34 0 0 Z " fill="#9C0F18" transform="translate(334,66)"/>
<path d="M0 0 C1.32 0 2.64 0 4 0 C4 0.66 4 1.32 4 2 C2.37373596 3.38232443 0.7074998 4.71937515 -1 6 C-1.042721 4.33388095 -1.04063832 2.66617115 -1 1 C-0.67 0.67 -0.34 0.34 0 0 Z " fill="#17141C" transform="translate(294,223)"/>
<path d="M0 0 C0.33 0 0.66 0 1 0 C1.08159574 4.16138263 0.98248524 7.9472484 0 12 C-1.95143115 9.13024831 -1.98930952 7.87385237 -1.6875 4.3125 C-1 1 -1 1 0 0 Z " fill="#AE1116" transform="translate(170,199)"/>
</svg>
